<svg width="500" height="500" viewBox="0 0 500 500" fill="none" xmlns="http://www.w3.org/2000/svg">
<path d="M0 382.398H500V382.648H0V382.398Z" fill="#EBEBEB"/>
<path d="M50.099 398.494H83.221V398.744H50.099V398.494Z" fill="#EBEBEB"/>
<path d="M168.78 401.208H177.473V401.458H168.78V401.208Z" fill="#EBEBEB"/>
<path d="M84.222 389.208H103.414V389.458H84.222V389.208Z" fill="#EBEBEB"/>
<path d="M404.348 390.888H447.541V391.138H404.348V390.888Z" fill="#EBEBEB"/>
<path d="M389.111 390.888H395.444V391.138H389.111V390.888Z" fill="#EBEBEB"/>
<path d="M274.853 395.111H368.529V395.361H274.853V395.111Z" fill="#EBEBEB"/>
<path d="M262.986 337.8H456.085C459.232 337.8 461.793 335.239 461.793 332.092V60.66C461.793 57.513 459.232 54.952 456.085 54.952H262.986C259.84 54.952 257.279 57.513 257.279 60.66V332.092C257.279 335.239 259.84 337.8 262.986 337.8ZM456.085 55.203C459.095 55.203 461.543 57.651 461.543 60.661V332.093C461.543 335.103 459.095 337.551 456.085 337.551H262.986C259.977 337.551 257.529 335.103 257.529 332.093V60.66C257.529 57.651 259.977 55.202 262.986 55.202L456.085 55.203Z" fill="#EBEBEB"/>
<path d="M46.69 337.8H239.788C242.935 337.8 245.495 335.239 245.495 332.092V60.66C245.495 57.513 242.934 54.952 239.788 54.952H46.69C43.542 54.952 40.982 57.513 40.982 60.66V332.092C40.981 335.239 43.542 337.8 46.69 337.8ZM239.788 55.203C242.797 55.203 245.245 57.651 245.245 60.661V332.093C245.245 335.103 242.797 337.551 239.788 337.551H46.69C43.68 337.551 41.232 335.103 41.232 332.093V60.66C41.232 57.651 43.68 55.202 46.69 55.202L239.788 55.203Z" fill="#EBEBEB"/>
<path d="M190.513 376.574H211.621L200.524 286.199C200.054 282.373 196.572 279.272 192.746 279.272H185.492H100.644L114.146 376.574H190.513Z" fill="#F5F5F5"/>
<path d="M123.568 376.574H102.46L91.363 286.199C90.893 282.373 93.614 279.272 97.439 279.272H104.693C108.519 279.272 112.001 282.373 112.47 286.199L123.568 376.574Z" fill="#F0F0F0"/>
<path d="M131.345 376.467L127.521 332.754C127.35 330.802 125.842 329.232 123.897 328.984L122.324 328.783C119.716 328.45 117.692 326.345 117.463 323.726L116.766 315.756C116.48 312.489 119.055 309.679 122.334 309.679H87.058C83.779 309.679 81.204 312.489 81.49 315.756L82.187 323.726C82.416 326.345 84.44 328.45 87.047 328.783L88.62 328.984C90.564 329.232 92.073 330.802 92.243 332.754L96.067 376.467C96.346 379.654 99.014 382.099 102.213 382.099H137.489C134.292 382.099 131.623 379.654 131.345 376.467Z" fill="#E6E6E6"/>
<path d="M228.422 321.811C229.023 314.946 234.77 309.68 241.661 309.68H224.592H210.95C204.059 309.68 198.312 314.947 197.711 321.811L194.679 356.462H225.39L228.422 321.811Z" fill="#E6E6E6"/>
<path d="M255.303 309.68H241.661C234.77 309.68 229.022 314.947 228.422 321.812L225.391 356.463H152.248L149.216 321.812C148.615 314.947 142.868 309.681 135.977 309.681H122.335C119.056 309.681 116.481 312.491 116.767 315.758L117.464 323.728C117.693 326.347 119.717 328.452 122.325 328.785L123.898 328.986C125.842 329.234 127.351 330.804 127.521 332.756L131.345 376.469C131.624 379.656 134.292 382.101 137.491 382.101H240.146C243.345 382.101 246.014 379.656 246.292 376.469L250.116 332.756C250.287 330.804 251.795 329.234 253.739 328.986L255.312 328.785C257.92 328.452 259.944 326.347 260.173 323.728L260.87 315.758C261.156 312.49 258.582 309.68 255.303 309.68Z" fill="#F0F0F0"/>
<path d="M407.489 131.347C407.489 131.347 408.661 123.621 403.026 118.667C397.391 113.713 397.886 110.766 399.496 110.382C401.106 109.998 402.592 114.952 405.069 116.314C405.069 116.314 405.147 109.255 402.631 106.654C400.115 104.053 398.795 97.353 401.189 97.236C403.583 97.118 403.831 101.215 404.326 104.121C404.821 107.026 407.489 111.113 407.489 111.113C407.489 111.113 408.01 104.797 409.636 102.196C411.262 99.595 406.927 93.65 408.599 91.05C410.271 88.449 413.243 93.403 412.996 98.976C412.748 104.549 409.033 110.494 409.9 116.315C409.9 116.315 411.539 112.228 413.011 111.856C414.483 111.484 415.969 108.781 416.96 107.78C417.951 106.778 419.189 110.246 416.96 113.466C414.731 116.686 409.034 125.301 409.901 132.264L407.489 131.347Z" fill="#E6E6E6"/>
<path d="M404.12 127.832L402.275 139.412C401.705 142.988 404.468 146.226 408.09 146.226H410.058C413.679 146.226 416.442 142.988 415.873 139.412L414.028 127.832H404.12Z" fill="#E6E6E6"/>
<path d="M432.031 148.655L301.592 148.655V141.953L432.031 141.953V148.655Z" fill="#E0E0E0"/>
<path d="M313.342 141.953H307.596V117.249H313.342V141.953Z" fill="#EBEBEB"/>
<path d="M341.13 141.953H335.383V117.249H341.13V141.953Z" fill="#EBEBEB"/>
<path d="M376.879 140.979L371.215 141.955L367.02 117.609L372.684 116.633L376.879 140.979Z" fill="#EBEBEB"/>
<path d="M320.463 141.952H314.716V120.504H320.463V141.952Z" fill="#EBEBEB"/>
<path d="M333.672 141.952H327.925V120.504H333.672V141.952Z" fill="#EBEBEB"/>
<path d="M367.011 141.952H361.264V120.504H367.011V141.952Z" fill="#EBEBEB"/>
<path d="M353.33 140.704L347.72 141.951L343.068 121.013L348.678 119.767L353.33 140.704Z" fill="#EBEBEB"/>
<path d="M325.431 141.953H322.558V116.023H325.431V141.953Z" fill="#EBEBEB"/>
<path d="M359.612 141.953H356.739V116.023H359.612V141.953Z" fill="#EBEBEB"/>
<path d="M301.592 191.984H432.03V198.686H301.592V191.984Z" fill="#E0E0E0"/>
<path d="M420.28 167.281H426.027V191.985H420.28V167.281Z" fill="#EBEBEB"/>
<path d="M392.493 167.281H398.24V191.985H392.493V167.281Z" fill="#EBEBEB"/>
<path d="M360.953 166.674L366.615 167.65L362.421 191.996L356.758 191.02L360.953 166.674Z" fill="#EBEBEB"/>
<path d="M413.16 170.536H418.906V191.984H413.16V170.536Z" fill="#EBEBEB"/>
<path d="M399.951 170.536H405.698V191.984H399.951V170.536Z" fill="#EBEBEB"/>
<path d="M366.611 170.536H372.358V191.984H366.611V170.536Z" fill="#EBEBEB"/>
<path d="M384.944 169.8L390.554 171.047L385.902 191.985L380.291 190.739L384.944 169.8Z" fill="#EBEBEB"/>
<path d="M408.191 166.054H411.064V191.984H408.191V166.054Z" fill="#EBEBEB"/>
<path d="M374.01 166.054H376.883V191.984H374.01V166.054Z" fill="#EBEBEB"/>
<path d="M314.108 172.432H342.108V191.763H314.108V172.432Z" fill="#EBEBEB"/>
<path d="M89.673 124.211H201.861V248.289H89.673V124.211Z" fill="#E0E0E0"/>
<path d="M86.091 124.211H202.45V248.289H86.091V124.211Z" fill="#F0F0F0"/>
<path d="M91.012 128.169H197.713V242.588H91.012V128.169Z" fill="white"/>
<path d="M91.012 128.169H94.098V242.588H91.012V128.169Z" fill="#E0E0E0"/>
<path d="M197.987 210.448V213.534H93.7685V210.448H197.987Z" fill="#E0E0E0"/>
<path d="M91.012 205.268H199.368V210.448H91.012V205.268Z" fill="#F0F0F0"/>
<path d="M250 427.561C142.918 427.561 56.111 422.492 56.111 416.238C56.111 409.984 142.918 404.915 250 404.915C357.082 404.915 443.889 409.984 443.889 416.238C443.889 422.492 357.082 427.561 250 427.561Z" fill="#F5F5F5"/>
<path d="M172.835 399.751C172.118 398.547 173.129 396.736 174.531 396.715C173.917 394.987 174.523 392.899 175.966 391.768C176.148 391.625 176.357 391.492 176.589 391.491C176.837 391.491 177.057 391.641 177.258 391.786C178.578 392.735 179.899 393.683 181.219 394.632C181.521 394.849 181.834 395.079 182.005 395.409C182.815 396.978 179.896 398.988 181.096 400.282C181.44 400.654 181.996 400.731 182.425 400.999C183.368 401.588 183.481 402.883 183.921 403.904C184.36 404.925 185.892 405.718 186.478 404.773C186.045 403.793 187.355 402.949 188.418 402.825C189.467 402.702 190.592 402.642 191.18 401.644C192.689 402.963 196.068 399.283 195.991 397.799C197.231 397.893 198.076 399.055 198.348 400.217C198.63 401.422 198.455 402.679 198.475 403.915C198.513 406.317 199.288 408.67 199.246 411.073C199.213 412.943 198.491 415.018 196.779 415.771C195.955 416.133 195.024 416.133 194.124 416.128C187.627 416.086 181.131 416.045 174.634 416.003C174.166 416 173.678 415.992 173.264 415.776C172.385 415.317 172.199 414.162 172.117 413.173C171.768 408.939 171.419 404.705 171.071 400.47C171.659 400.231 172.247 399.991 172.835 399.751Z" fill="#407BFF"/>
<path opacity="0.3" d="M172.835 399.751C172.118 398.547 173.129 396.736 174.531 396.715C173.917 394.987 174.523 392.899 175.966 391.768C176.148 391.625 176.357 391.492 176.589 391.491C176.837 391.491 177.057 391.641 177.258 391.786C178.578 392.735 179.899 393.683 181.219 394.632C181.521 394.849 181.834 395.079 182.005 395.409C182.815 396.978 179.896 398.988 181.096 400.282C181.44 400.654 181.996 400.731 182.425 400.999C183.368 401.588 183.481 402.883 183.921 403.904C184.36 404.925 185.892 405.718 186.478 404.773C186.045 403.793 187.355 402.949 188.418 402.825C189.467 402.702 190.592 402.642 191.18 401.644C192.689 402.963 196.068 399.283 195.991 397.799C197.231 397.893 198.076 399.055 198.348 400.217C198.63 401.422 198.455 402.679 198.475 403.915C198.513 406.317 199.288 408.67 199.246 411.073C199.213 412.943 198.491 415.018 196.779 415.771C195.955 416.133 195.024 416.133 194.124 416.128C187.627 416.086 181.131 416.045 174.634 416.003C174.166 416 173.678 415.992 173.264 415.776C172.385 415.317 172.199 414.162 172.117 413.173C171.768 408.939 171.419 404.705 171.071 400.47C171.659 400.231 172.247 399.991 172.835 399.751Z" fill="white"/>
<path d="M171.697 379.151H173.886H179.911H182.107H188.125H190.321H196.339H198.535H201.939L201.69 382.206L201.512 384.387L201.05 390.064L200.787 393.325L200.439 397.666L200.29 399.528L200.24 400.082L200.062 402.27L199.82 405.269L199.671 407.131L199.515 409.021L199.337 411.21L199.202 412.866L199.053 414.728L198.989 415.538H195.01H191.649H186.796H183.435H178.582H175.221H171.235L171.171 414.728L171.022 412.874L170.887 411.204L170.709 409.015L170.553 407.132L170.404 405.27L170.163 402.264L169.985 400.083L169.942 399.529L169.793 397.667L169.438 393.326L169.175 390.072L168.72 384.388L168.542 382.207L168.293 379.152H171.697V379.151ZM169.878 381.154L170.461 380.571H169.829L169.878 381.154ZM170.027 383.009L170.084 383.748L172.791 386.455L175.896 383.35L173.118 380.572H172.464L170.027 383.009ZM170.809 392.686L172.792 394.668L175.897 391.563L172.792 388.465L170.646 390.611L170.809 392.686ZM199.586 390.612L197.44 388.466L194.335 391.564L197.44 394.669L199.415 392.687L199.586 390.612ZM173.793 387.457L176.898 390.562L180.003 387.457L176.898 384.352L173.793 387.457ZM178.675 380.572H175.122L176.898 382.348L178.675 380.572ZM177.907 391.564L181.005 394.669L184.11 391.564L181.005 388.466L177.907 391.564ZM188.217 395.671L185.112 392.573L182.014 395.671L185.112 398.776L188.217 395.671ZM186.121 399.778L189.226 402.883L192.324 399.785L189.219 396.68L186.121 399.778ZM181.005 396.68L177.907 399.785L181.005 402.883L184.11 399.778L181.005 396.68ZM185.112 390.562L188.217 387.457L185.112 384.352L182.014 387.457L185.112 390.562ZM186.121 391.564L189.219 394.669L192.324 391.564L189.219 388.466L186.121 391.564ZM193.333 390.562L196.431 387.457L193.333 384.352L190.228 387.457L193.333 390.562ZM193.333 392.573L190.228 395.671L193.333 398.776L196.431 395.671L193.333 392.573ZM190.228 403.892L193.333 406.99L196.431 403.892L193.333 400.787L190.228 403.892ZM189.227 404.894L186.122 407.999L189.22 411.104L192.325 407.999L189.227 404.894ZM188.217 403.892L185.112 400.787L182.014 403.892L185.112 406.99L188.217 403.892ZM181.005 404.894L177.907 407.999L181.005 411.104L184.11 407.999L181.005 404.894ZM176.898 409.001L173.793 412.106L175.804 414.117H177.993L180.004 412.106L176.898 409.001ZM180.004 403.892L176.899 400.787L173.794 403.892L176.899 406.99L180.004 403.892ZM180.004 395.671L176.899 392.573L173.794 395.671L176.899 398.776L180.004 395.671ZM177.907 383.35L181.005 386.455L184.11 383.35L181.332 380.572H180.678L177.907 383.35ZM185.112 382.348L186.888 380.572H183.342L185.112 382.348ZM186.121 383.35L189.219 386.455L192.324 383.35L189.546 380.572H188.892L186.121 383.35ZM191.557 380.572L193.333 382.348L195.102 380.572H191.557ZM197.113 380.572L194.335 383.35L197.44 386.455L200.14 383.748L200.197 383.009L197.767 380.572H197.113ZM199.771 380.572L200.347 381.148L200.397 380.572H199.771ZM199.963 385.936L198.442 387.457L199.735 388.75L199.963 385.936ZM199.117 396.346L199.238 394.875L198.442 395.671L199.117 396.346ZM198.968 398.215L197.44 396.68L194.335 399.785L197.44 402.883L198.69 401.632L198.968 398.215ZM198.506 403.956L198.513 403.821L198.442 403.892L198.506 403.956ZM197.966 410.571L198.357 405.81L197.44 404.893L194.335 407.998L197.44 411.096L197.966 410.571ZM197.682 414.117L197.739 413.406L197.441 413.108L196.432 414.117H197.682ZM196.431 412.106L193.333 409.001L190.228 412.106L192.239 414.117H194.428L196.431 412.106ZM190.228 414.117L189.219 413.108L188.21 414.117H190.228ZM186.207 414.117L188.218 412.106L185.113 409.001L182.015 412.106L184.019 414.117H186.207ZM182.014 414.117L181.005 413.108L179.996 414.117H182.014ZM172.55 414.117H173.8L172.791 413.108L172.492 413.406L172.55 414.117ZM172.259 410.571L172.792 411.097L175.897 407.999L172.792 404.894L171.875 405.811L172.259 410.571ZM171.711 403.814L171.725 403.956L171.789 403.892L171.711 403.814ZM171.534 401.632L172.792 402.883L175.897 399.785L172.792 396.68L171.257 398.215L171.534 401.632ZM171.108 396.353L171.79 395.671L170.987 394.875L171.108 396.353ZM170.262 385.929L170.489 388.757L171.789 387.457L170.262 385.929Z" fill="#407BFF"/>
<g opacity="0.6">
<path d="M171.697 379.151H173.886H179.911H182.107H188.125H190.321H196.339H198.535H201.939L201.69 382.206L201.512 384.387L201.05 390.064L200.787 393.325L200.439 397.666L200.29 399.528L200.24 400.082L200.062 402.27L199.82 405.269L199.671 407.131L199.515 409.021L199.337 411.21L199.202 412.866L199.053 414.728L198.989 415.538H195.01H191.649H186.796H183.435H178.582H175.221H171.235L171.171 414.728L171.022 412.874L170.887 411.204L170.709 409.015L170.553 407.132L170.404 405.27L170.163 402.264L169.985 400.083L169.942 399.529L169.793 397.667L169.438 393.326L169.175 390.072L168.72 384.388L168.542 382.207L168.293 379.152H171.697V379.151ZM169.878 381.154L170.461 380.571H169.829L169.878 381.154ZM170.027 383.009L170.084 383.748L172.791 386.455L175.896 383.35L173.118 380.572H172.464L170.027 383.009ZM170.809 392.686L172.792 394.668L175.897 391.563L172.792 388.465L170.646 390.611L170.809 392.686ZM199.586 390.612L197.44 388.466L194.335 391.564L197.44 394.669L199.415 392.687L199.586 390.612ZM173.793 387.457L176.898 390.562L180.003 387.457L176.898 384.352L173.793 387.457ZM178.675 380.572H175.122L176.898 382.348L178.675 380.572ZM177.907 391.564L181.005 394.669L184.11 391.564L181.005 388.466L177.907 391.564ZM188.217 395.671L185.112 392.573L182.014 395.671L185.112 398.776L188.217 395.671ZM186.121 399.778L189.226 402.883L192.324 399.785L189.219 396.68L186.121 399.778ZM181.005 396.68L177.907 399.785L181.005 402.883L184.11 399.778L181.005 396.68ZM185.112 390.562L188.217 387.457L185.112 384.352L182.014 387.457L185.112 390.562ZM186.121 391.564L189.219 394.669L192.324 391.564L189.219 388.466L186.121 391.564ZM193.333 390.562L196.431 387.457L193.333 384.352L190.228 387.457L193.333 390.562ZM193.333 392.573L190.228 395.671L193.333 398.776L196.431 395.671L193.333 392.573ZM190.228 403.892L193.333 406.99L196.431 403.892L193.333 400.787L190.228 403.892ZM189.227 404.894L186.122 407.999L189.22 411.104L192.325 407.999L189.227 404.894ZM188.217 403.892L185.112 400.787L182.014 403.892L185.112 406.99L188.217 403.892ZM181.005 404.894L177.907 407.999L181.005 411.104L184.11 407.999L181.005 404.894ZM176.898 409.001L173.793 412.106L175.804 414.117H177.993L180.004 412.106L176.898 409.001ZM180.004 403.892L176.899 400.787L173.794 403.892L176.899 406.99L180.004 403.892ZM180.004 395.671L176.899 392.573L173.794 395.671L176.899 398.776L180.004 395.671ZM177.907 383.35L181.005 386.455L184.11 383.35L181.332 380.572H180.678L177.907 383.35ZM185.112 382.348L186.888 380.572H183.342L185.112 382.348ZM186.121 383.35L189.219 386.455L192.324 383.35L189.546 380.572H188.892L186.121 383.35ZM191.557 380.572L193.333 382.348L195.102 380.572H191.557ZM197.113 380.572L194.335 383.35L197.44 386.455L200.14 383.748L200.197 383.009L197.767 380.572H197.113ZM199.771 380.572L200.347 381.148L200.397 380.572H199.771ZM199.963 385.936L198.442 387.457L199.735 388.75L199.963 385.936ZM199.117 396.346L199.238 394.875L198.442 395.671L199.117 396.346ZM198.968 398.215L197.44 396.68L194.335 399.785L197.44 402.883L198.69 401.632L198.968 398.215ZM198.506 403.956L198.513 403.821L198.442 403.892L198.506 403.956ZM197.966 410.571L198.357 405.81L197.44 404.893L194.335 407.998L197.44 411.096L197.966 410.571ZM197.682 414.117L197.739 413.406L197.441 413.108L196.432 414.117H197.682ZM196.431 412.106L193.333 409.001L190.228 412.106L192.239 414.117H194.428L196.431 412.106ZM190.228 414.117L189.219 413.108L188.21 414.117H190.228ZM186.207 414.117L188.218 412.106L185.113 409.001L182.015 412.106L184.019 414.117H186.207ZM182.014 414.117L181.005 413.108L179.996 414.117H182.014ZM172.55 414.117H173.8L172.791 413.108L172.492 413.406L172.55 414.117ZM172.259 410.571L172.792 411.097L175.897 407.999L172.792 404.894L171.875 405.811L172.259 410.571ZM171.711 403.814L171.725 403.956L171.789 403.892L171.711 403.814ZM171.534 401.632L172.792 402.883L175.897 399.785L172.792 396.68L171.257 398.215L171.534 401.632ZM171.108 396.353L171.79 395.671L170.987 394.875L171.108 396.353ZM170.262 385.929L170.489 388.757L171.789 387.457L170.262 385.929Z" fill="white"/>
</g>
<path d="M202.231 381.839H167.999C167.091 381.839 166.356 381.103 166.356 380.196V379.527C166.356 378.619 167.092 377.884 167.999 377.884H202.231C203.139 377.884 203.874 378.62 203.874 379.527V380.196C203.874 381.103 203.139 381.839 202.231 381.839Z" fill="#407BFF"/>
<path d="M170.704 417.366H199.526C200.434 417.366 201.169 416.63 201.169 415.723V415.054C201.169 414.146 200.433 413.411 199.526 413.411H170.704C169.796 413.411 169.061 414.147 169.061 415.054V415.723C169.061 416.631 169.797 417.366 170.704 417.366Z" fill="#407BFF"/>
<path d="M70.576 280.726H318.645C320.923 280.726 322.77 278.879 322.77 276.601V97.638C322.77 95.36 320.923 93.513 318.645 93.513H70.576C68.298 93.513 66.451 95.36 66.451 97.638V276.601C66.45 278.879 68.297 280.726 70.576 280.726Z" fill="#407BFF"/>
<path opacity="0.4" d="M66.45 103.633H322.77V272.615H66.45V103.633Z" fill="black"/>
<path d="M72.446 100.848C71.1139 100.848 70.034 99.7681 70.034 98.436C70.034 97.1039 71.1139 96.024 72.446 96.024C73.7781 96.024 74.858 97.1039 74.858 98.436C74.858 99.7681 73.7781 100.848 72.446 100.848Z" fill="white"/>
<path d="M80.58 100.848C79.2479 100.848 78.168 99.7681 78.168 98.436C78.168 97.1039 79.2479 96.024 80.58 96.024C81.9121 96.024 82.992 97.1039 82.992 98.436C82.992 99.7681 81.9121 100.848 80.58 100.848Z" fill="white"/>
<path d="M88.715 100.848C87.3829 100.848 86.303 99.7681 86.303 98.436C86.303 97.1039 87.3829 96.024 88.715 96.024C90.0471 96.024 91.127 97.1039 91.127 98.436C91.127 99.7681 90.0471 100.848 88.715 100.848Z" fill="white"/>
<path d="M238.531 191.453H321.823V264.438H238.531V191.453Z" fill="#263238"/>
<path d="M238.531 116.858H321.823V189.843H238.531V116.858Z" fill="#263238"/>
<path d="M153.326 116.858H236.618V189.843H153.326V116.858Z" fill="#407BFF"/>
<path d="M68.122 116.858H151.414V189.843H68.122V116.858Z" fill="white"/>
<path d="M153.326 191.453H236.618V264.438H153.326V191.453Z" fill="#263238"/>
<path d="M68.122 191.453H151.414V264.438H68.122V191.453Z" fill="#407BFF"/>
<path d="M82.385 189.842L80.496 173.916C79.991 169.662 82.767 165.677 86.949 164.747C108.571 159.941 121.468 164.699 121.468 164.699C127.047 173.794 130.478 182.428 132.579 189.842H82.385Z" fill="#263238"/>
<path d="M97.967 164.059C96.382 163.706 92.39 163.946 92.39 163.946C97.087 160.015 94.757 150.041 92.854 144.618L107.383 152.833C107.22 153.531 107.083 154.239 107.02 154.937C106.882 156.266 106.957 157.557 107.458 158.705C107.889 159.687 109.742 161.901 110.906 162.599L105.093 165.194L97.967 164.059Z" fill="#E4897B"/>
<path opacity="0.2" d="M96.211 149.84C96.787 156.496 103.952 158.332 107.459 158.705C106.958 157.557 106.883 156.266 107.021 154.937L96.211 149.84Z" fill="black"/>
<path d="M115.316 129.693C115.316 129.693 116.463 139.16 110.964 143.145C105.465 147.13 106.645 123.955 106.645 123.955L115.316 129.693Z" fill="#263238"/>
<path d="M94 149.696C94.268 150.26 94.602 150.824 94.995 151.379C97.482 154.946 101.422 156.065 105.008 155.243C105.276 155.176 105.534 155.109 105.792 155.023C108.145 154.287 110.268 152.69 111.626 150.394C111.674 150.318 111.722 150.232 111.769 150.155C111.951 149.839 112.113 149.505 112.266 149.16C112.562 148.462 112.84 147.706 113.079 146.913C115.068 140.477 114.839 129.727 108.871 126.036C104.118 123.043 96.611 124.047 93.617 128.809C92.756 130.158 93.722 133.686 93.569 135.284C92.853 141.74 92.126 145.852 94 149.696Z" fill="#E4897B"/>
<path d="M104.365 139.239C104.222 139.824 104.493 140.372 104.889 140.44C105.286 140.507 105.678 140.071 105.783 139.477C105.888 138.883 105.646 138.341 105.259 138.276C104.871 138.211 104.473 138.635 104.365 139.239Z" fill="#263238"/>
<path d="M111.121 140.393C110.979 140.979 111.258 141.529 111.646 141.594C112.034 141.659 112.435 141.225 112.54 140.631C112.645 140.037 112.403 139.495 112.015 139.43C111.628 139.364 111.22 139.826 111.121 140.393Z" fill="#263238"/>
<path d="M108.924 140.32C109.323 142.27 109.99 144.154 110.906 145.921C109.973 146.373 108.888 146.39 107.942 145.967L108.924 140.32Z" fill="#DE5753"/>
<path d="M102.642 136.693C102.769 136.733 102.907 136.703 103.006 136.614C103.651 135.979 104.558 135.685 105.453 135.822C105.643 135.869 105.834 135.753 105.881 135.563C105.928 135.373 105.812 135.182 105.622 135.135H105.62C104.493 134.933 103.338 135.29 102.522 136.093C102.376 136.223 102.362 136.446 102.491 136.593C102.493 136.595 102.495 136.597 102.497 136.599C102.541 136.638 102.59 136.669 102.642 136.693Z" fill="#263238"/>
<path d="M114.423 138.559C114.484 138.597 114.556 138.614 114.627 138.609C114.816 138.557 114.926 138.363 114.875 138.174C114.874 138.171 114.874 138.169 114.873 138.167C114.578 137.057 113.76 136.16 112.683 135.763C112.496 135.706 112.299 135.812 112.242 135.999V136C112.191 136.187 112.295 136.381 112.479 136.442C113.321 136.78 113.953 137.496 114.184 138.373C114.232 138.467 114.319 138.535 114.423 138.559Z" fill="#263238"/>
<path d="M90.756 130.73C90.716 130.535 90.679 130.328 90.647 130.109C89.606 123.015 100.038 118.848 109.424 119.73C113.513 120.115 112.564 127.108 112.564 127.108C112.564 127.108 114.887 127.108 115.937 128.523C117.788 131.015 114.943 136.49 114.943 136.49C116.371 128.523 112.226 128.051 112.226 128.051C112.226 128.051 111.265 131.149 109.373 130.865C107.481 130.581 102.851 126.057 100.551 126.603C98.67 127.05 97.805 128.303 97.407 129.434C97.306 130.464 97.601 131.775 98.928 133.262C100.897 135.469 97.572 140.192 95.262 141.63C95.262 141.63 95.342 140.435 94.306 140.594C93.27 140.753 92.792 146.97 94.386 150.158C94.386 150.158 91.756 147.13 90.879 140.435C90.381 136.624 90.353 133.263 90.756 130.73Z" fill="#263238"/>
<path d="M106.443 148.896C104.662 148.863 103.01 147.963 102.015 146.486C101.964 146.396 101.993 146.281 102.082 146.228C102.166 146.174 102.279 146.198 102.333 146.283C102.336 146.287 102.338 146.291 102.34 146.295C103.288 147.642 104.815 148.464 106.462 148.514C106.562 148.514 106.644 148.594 106.645 148.695C106.645 148.702 106.645 148.709 106.644 148.715C106.645 148.815 106.564 148.897 106.463 148.898C106.457 148.897 106.45 148.897 106.443 148.896Z" fill="#263238"/>
<path d="M89.34 140.755C89.871 142.555 91.093 144.071 92.74 144.97C94.929 146.146 96.565 144.316 96.416 141.965C96.264 139.877 94.966 136.684 92.541 136.501C90.117 136.318 88.716 138.538 89.34 140.755Z" fill="#E4897B"/>
<path opacity="0.1" d="M105.008 155.243C105.276 155.176 105.534 155.109 105.792 155.023C108.145 154.287 110.268 152.69 111.626 150.394C109.895 150.203 106.261 149.839 105.525 150.155C104.769 150.48 104.902 153.761 105.008 155.243Z" fill="black"/>
<path d="M115.983 189.842H111.113L105.808 170.301L100.994 165.194H109.425L107.458 170.112L115.983 189.842Z" fill="#407BFF"/>
<path d="M133.912 186.191L134.225 189.842H126.305C119.539 173.765 113.251 162.116 113.251 162.116L121.468 164.699C140.428 170.258 142.074 182.725 138.828 185.876C135.582 189.027 133.912 186.191 133.912 186.191Z" fill="#407BFF"/>
<path opacity="0.5" d="M133.912 186.191L134.225 189.842H126.305C119.539 173.765 113.251 162.116 113.251 162.116L121.468 164.699C140.428 170.258 142.074 182.725 138.828 185.876C135.582 189.027 133.912 186.191 133.912 186.191Z" fill="white"/>
<path d="M128.04 189.842H126.195C119.956 176.57 109.773 161.032 109.773 161.032C116.22 160.843 122.039 163.388 122.039 163.388L119.928 169.27L125.017 170.301L128.04 189.842Z" fill="#407BFF"/>
<path opacity="0.4" d="M128.04 189.842H126.195C119.956 176.57 109.773 161.032 109.773 161.032C116.22 160.843 122.039 163.388 122.039 163.388L119.928 169.27L125.017 170.301L128.04 189.842Z" fill="white"/>
<path opacity="0.2" d="M130.139 189.842C128.343 185.669 128.498 182.66 128.498 182.66L133.911 186.191L134.224 189.842H130.139Z" fill="black"/>
<path d="M112.447 162.935L108.561 159.424L105.094 164.153L94.09 159.424L91.332 163.88L101.99 169.166L105.534 165.761L109.425 168.221L112.447 162.935Z" fill="#263238"/>
<path opacity="0.2" d="M112.447 162.935L108.561 159.424L105.094 164.153L94.09 159.424L91.332 163.88L101.99 169.166L105.534 165.761L109.425 168.221L112.447 162.935Z" fill="white"/>
<path d="M124.986 174.686L113.251 162.116C113.251 162.116 110.886 162.167 109.14 160.524C107.395 158.881 105.035 151.619 105.609 151.153C106.183 150.687 113.186 150.101 113.851 150.921C114.516 151.741 117.413 159.078 117.413 159.078L129.993 168.922L124.986 174.686Z" fill="#E4897B"/>
<path d="M123.697 163.702L121.378 161.654L115.822 165.962L118.344 169.305L123.697 163.702Z" fill="#263238"/>
<path opacity="0.2" d="M123.697 163.702L121.378 161.654L115.822 165.962L118.344 169.305L123.697 163.702Z" fill="white"/>
<path d="M123.066 162.389L116.407 167.66C116.407 167.66 131.89 192.177 137.522 187.002C143.154 181.827 140.266 173.712 123.066 162.389Z" fill="#407BFF"/>
<path opacity="0.6" d="M123.066 162.389L116.407 167.66C116.407 167.66 131.89 192.177 137.522 187.002C143.154 181.827 140.266 173.712 123.066 162.389Z" fill="white"/>
<path d="M80.371 189.842L79.393 172.261C79.226 168.763 81.335 165.556 84.613 164.323L93.364 161.032C93.364 161.032 92.986 174.233 91.97 189.842H80.371Z" fill="#407BFF"/>
<path opacity="0.5" d="M80.371 189.842L79.393 172.261C79.226 168.763 81.335 165.556 84.613 164.323L93.364 161.032C93.364 161.032 92.986 174.233 91.97 189.842H80.371Z" fill="white"/>
<path d="M88.385 189.842L85.15 180.768L89.959 176.354L84.41 174.686C87.941 163.812 93.662 160.114 93.662 160.114C95.079 167.068 93.687 180.923 92.527 189.842H88.385Z" fill="#407BFF"/>
<path opacity="0.4" d="M88.385 189.842L85.15 180.768L89.959 176.354L84.41 174.686C87.941 163.812 93.662 160.114 93.662 160.114C95.079 167.068 93.687 180.923 92.527 189.842H88.385Z" fill="white"/>
<path d="M132.522 187.697C131.539 188.081 123.668 188.602 123.668 188.602L121.843 189.842H109.061L122.043 183.711C122.043 183.711 122.716 181.443 124.813 180.282C126.91 179.121 134.546 179.087 134.815 179.776C135.083 180.465 133.506 187.313 132.522 187.697Z" fill="#E4897B"/>
<path d="M113.083 189.842L111.903 187.719L116.758 185.592L118.485 189.842H113.083Z" fill="#263238"/>
<path opacity="0.2" d="M113.083 189.842L111.903 187.719L116.758 185.592L118.485 189.842H113.083Z" fill="white"/>
<path d="M86.65 189.842C80.852 180.773 76.77 169.726 81.51 166.518C81.51 166.518 85.15 165.479 100.177 188.451C100.177 188.451 101.835 191.993 114.202 186.444L115.813 189.843H86.65V189.842Z" fill="#407BFF"/>
<path opacity="0.6" d="M86.65 189.842C80.852 180.773 76.77 169.726 81.51 166.518C81.51 166.518 85.15 165.479 100.177 188.451C100.177 188.451 101.835 191.993 114.202 186.444L115.813 189.843H86.65V189.842Z" fill="white"/>
<path opacity="0.3" d="M153.326 191.453H236.618V264.438H153.326V191.453Z" fill="white"/>
<path d="M307.489 189.842C305.481 184.629 293.739 174.481 293.739 174.481V164.032C299.748 165.148 314.432 177.791 314.808 189.841L307.489 189.842Z" fill="#407BFF"/>
<path opacity="0.6" d="M307.486 189.842C306.535 187.362 303.384 183.77 300.347 180.683C296.981 177.278 293.739 174.486 293.739 174.486V164.033C299.749 165.148 314.437 177.794 314.809 189.842H307.486Z" fill="white"/>
<path opacity="0.2" d="M300.347 180.683C296.981 177.278 293.739 174.486 293.739 174.486V171.445C293.739 171.445 299.525 174.314 300.347 180.683Z" fill="black"/>
<path d="M251.416 189.842C249.923 180.623 248.457 173.015 247.774 169.581C247.555 168.481 248.249 167.398 249.345 167.16C251.494 166.694 253.708 166.289 255.944 165.945C267.181 164.204 279.02 163.889 286.394 163.898C290.908 163.908 293.739 164.032 293.739 164.032C295.804 171.411 297.028 180.594 297.727 189.841L251.416 189.842Z" fill="#407BFF"/>
<path opacity="0.7" d="M251.411 189.842C251.369 189.585 251.328 189.324 251.286 189.07C249.842 180.205 248.436 172.917 247.776 169.58C247.738 169.398 247.728 169.217 247.747 169.035C247.795 168.146 248.426 167.361 249.344 167.161C251.496 166.692 253.705 166.291 255.943 165.946C267.18 164.205 279.019 163.89 286.393 163.899C290.907 163.909 293.738 164.033 293.738 164.033C295.803 171.412 297.027 180.595 297.726 189.842H251.411Z" fill="white"/>
<path d="M277.481 175.777C264.455 177.157 255.772 166.08 255.772 166.08L255.944 165.946C267.181 164.205 279.021 163.89 286.394 163.899C286.394 163.899 289.71 174.482 277.481 175.777Z" fill="#407BFF"/>
<path d="M263.075 164.934C266.738 168.262 275.711 167.032 275.711 167.032C275.711 167.032 281.312 165.499 280.136 163.749C276.837 163.204 275.239 161.664 274.579 159.694C274.196 158.546 274.139 157.255 274.244 155.926C274.292 155.228 274.397 154.52 274.521 153.822L263.428 145.607C264.883 151.029 266.662 161.004 263.075 164.934Z" fill="#E4897B"/>
<path opacity="0.2" d="M265.992 150.828C266.432 157.484 271.902 159.32 274.58 159.693C274.197 158.545 274.14 157.254 274.245 155.925L265.992 150.828Z" fill="black"/>
<path d="M264.711 160.71L275.315 165.492L275.937 161.659L279.835 163.03C281.234 163.522 282.113 164.91 281.959 166.386L281.519 170.593L276.139 167.649L273.459 171.441L260.722 165.306L264.711 160.71Z" fill="#407BFF"/>
<path opacity="0.3" d="M264.711 160.71L275.315 165.492L275.937 161.659L279.835 163.03C281.234 163.522 282.113 164.91 281.959 166.386L281.519 170.593L276.139 167.649L273.459 171.441L260.722 165.306L264.711 160.71Z" fill="white"/>
<path d="M282.923 128.91C282.923 128.91 285.934 139.291 280.849 144.109C275.765 148.927 273.158 129.206 273.158 129.206L282.923 128.91Z" fill="#263238"/>
<path opacity="0.2" d="M282.923 128.91C282.923 128.91 285.934 139.291 280.849 144.109C275.765 148.927 273.158 129.206 273.158 129.206L282.923 128.91Z" fill="white"/>
<path d="M282.999 150.08C282.894 150.453 282.769 150.816 282.626 151.17C282.119 152.461 281.373 153.599 280.474 154.555C279.527 155.578 278.399 156.381 277.175 156.955C274.947 157.997 272.403 158.256 270.021 157.519C268.443 157.031 266.932 156.113 265.641 154.688C261.902 150.624 262.17 146.1 262.007 138.421C261.95 136.767 262.265 135.122 262.963 133.63C265.382 128.351 271.627 126.046 276.887 128.466C284.29 131.804 284.912 143.242 282.999 150.08Z" fill="#E4897B"/>
<path d="M273.574 141.006C273.507 141.624 273.857 142.148 274.273 142.163C274.688 142.178 275.03 141.679 275.057 141.057C275.084 140.435 274.764 139.914 274.358 139.9C273.953 139.886 273.603 140.374 273.574 141.006Z" fill="#263238"/>
<path d="M280.639 141.273C280.572 141.891 280.932 142.416 281.338 142.43C281.743 142.444 282.095 141.946 282.122 141.324C282.149 140.702 281.829 140.181 281.423 140.167C281.018 140.153 280.663 140.68 280.639 141.273Z" fill="#263238"/>
<path d="M278.383 141.496C279.055 143.435 279.991 145.273 281.167 146.956C280.274 147.545 279.167 147.708 278.142 147.403L278.383 141.496Z" fill="#DE5753"/>
<path d="M283.373 138.354C283.251 138.416 283.105 138.408 282.99 138.333C282.23 137.791 281.258 137.64 280.369 137.925C280.183 138.004 279.969 137.917 279.891 137.731C279.813 137.545 279.899 137.331 280.085 137.253L280.087 137.252C281.202 136.863 282.436 137.039 283.398 137.724C283.568 137.832 283.619 138.058 283.51 138.228C283.509 138.231 283.507 138.233 283.505 138.235C283.467 138.281 283.422 138.321 283.373 138.354Z" fill="#263238"/>
<path d="M272.283 138.128C272.209 138.123 272.139 138.095 272.081 138.048C271.954 137.892 271.977 137.662 272.133 137.534C272.135 137.532 272.137 137.531 272.139 137.529C273.051 136.774 274.274 136.509 275.418 136.821C275.609 136.885 275.712 137.092 275.647 137.283C275.578 137.471 275.375 137.573 275.184 137.513C274.275 137.293 273.315 137.517 272.596 138.115C272.499 138.165 272.385 138.17 272.283 138.128Z" fill="#263238"/>
<path d="M267.999 129.058L268.446 132.439C267.342 133.042 266.684 134.301 267.21 135.63C268.331 138.467 266.759 142.899 264.592 144.682C264.592 144.682 264.512 143.449 263.474 143.752C262.436 144.055 262.787 150.476 264.848 153.52C264.848 153.52 261.75 150.779 259.949 144.052C258.283 137.831 258.032 132.635 259.29 130.209L267.999 129.058Z" fill="#263238"/>
<path d="M273.745 148.838C273.745 148.838 275.733 149.249 277.031 151.179" stroke="#263238" stroke-width="0.5" stroke-miterlimit="10" stroke-linecap="round" stroke-linejoin="round"/>
<path opacity="0.1" d="M280.474 154.556C279.527 155.579 278.399 156.382 277.175 156.956C274.947 157.998 272.403 158.257 270.021 157.52C270.585 156.927 271.676 156.2 273.741 155.617C276.008 154.967 278.542 154.68 280.474 154.556Z" fill="black"/>
<path opacity="0.2" d="M267.999 129.058L268.446 132.439C267.342 133.042 266.684 134.301 267.21 135.63C268.331 138.467 266.759 142.899 264.592 144.682C264.592 144.682 264.512 143.449 263.474 143.752C262.436 144.055 262.787 150.476 264.848 153.52C264.848 153.52 261.75 150.779 259.949 144.052C258.283 137.831 258.032 132.635 259.29 130.209L267.999 129.058Z" fill="white"/>
<path d="M258.762 131.76C258.762 131.76 257.929 127.323 264.919 123.846C271.909 120.369 279.574 124.339 284.243 121.352C288.912 118.365 289.079 130.646 279.095 132.03C269.111 133.414 258.762 131.76 258.762 131.76Z" fill="#263238"/>
<path opacity="0.3" d="M258.762 131.76C258.762 131.76 257.929 127.323 264.919 123.846C271.909 120.369 279.574 124.339 284.243 121.352C288.912 118.365 289.079 130.646 279.095 132.03C269.111 133.414 258.762 131.76 258.762 131.76Z" fill="white"/>
<path d="M258.416 144.587C259.202 146.356 260.657 147.741 262.462 148.438C264.859 149.344 266.284 147.253 265.815 144.869C265.378 142.754 263.618 139.665 261.114 139.805C258.61 139.945 257.478 142.404 258.416 144.587Z" fill="#E4897B"/>
<path d="M270.286 169.343L271.348 163.703C271.348 163.703 269.154 161.619 269.405 159.693C269.656 157.767 279.433 154.588 281.166 154.461C282.899 154.334 282.243 161.371 281.713 162.658C281.183 163.946 275.314 165.491 275.314 165.491L274.58 171.439L270.286 169.343Z" fill="#E4897B"/>
<path opacity="0.2" d="M252.728 189.842C252.224 189.592 251.739 189.332 251.287 189.07C249.843 180.205 248.437 172.917 247.777 169.58C247.739 169.398 247.729 169.217 247.748 169.035C254.07 175.47 263.914 186.237 262.728 189.843H252.728V189.842Z" fill="black"/>
<path d="M256.161 189.842C248.891 183.319 242.567 174.334 247.037 168.255C250.96 162.919 261.083 182.269 264.109 183.593C267.136 184.917 269.838 167.176 269.838 167.176L275.838 168.964C275.838 168.964 274.737 181.743 271.656 189.842H256.161Z" fill="#407BFF"/>
<path opacity="0.6" d="M256.161 189.842C248.891 183.319 242.567 174.334 247.037 168.255C250.96 162.919 261.083 182.269 264.109 183.593C267.136 184.917 269.838 167.176 269.838 167.176L275.838 168.964C275.838 168.964 274.737 181.743 271.656 189.842H256.161Z" fill="white"/>
<path d="M210.845 189.842C208.73 187.713 207.365 186.207 207.365 186.207L208.517 168.484C211.859 170.256 221.871 183.624 227.127 189.842H210.845Z" fill="#407BFF"/>
<path opacity="0.5" d="M210.845 189.842C208.73 187.713 207.365 186.207 207.365 186.207L208.517 168.484C211.859 170.256 221.871 183.624 227.127 189.842H210.845Z" fill="white"/>
<path opacity="0.2" d="M210.849 189.842C208.731 187.714 207.365 186.21 207.365 186.21L207.633 182.002L208.962 177.919C208.962 177.919 213.791 182.395 213.664 189.843H210.849V189.842Z" fill="black"/>
<path d="M175.79 189.842C175.298 188.08 174.747 186.206 174.113 184.169C173.497 182.195 172.818 180.076 172.057 177.793C171.486 176.063 170.87 174.225 170.191 172.287C174.257 170.992 178.396 169.987 182.598 169.289C187.026 168.501 191.518 168.03 196.019 167.876C201.833 167.831 208.516 168.483 208.516 168.483C208.516 168.483 209.467 168.709 210.065 174.877C210.358 177.993 210.647 182.792 210.666 189.842H175.79Z" fill="#407BFF"/>
<path opacity="0.5" d="M175.79 189.842C175.298 188.08 174.747 186.206 174.113 184.169C173.497 182.195 172.818 180.076 172.057 177.793C171.486 176.063 170.87 174.225 170.191 172.287C174.257 170.992 178.396 169.987 182.598 169.289C187.026 168.501 191.518 168.03 196.019 167.876C201.833 167.831 208.516 168.483 208.516 168.483C208.516 168.483 209.467 168.709 210.065 174.877C210.358 177.993 210.647 182.792 210.666 189.842H175.79Z" fill="white"/>
<path d="M194.368 189.842L186.166 175.165L195.65 180.465L201.149 173.572L199.142 189.842H194.368Z" fill="#263238"/>
<path d="M185.847 167.435C180.432 168.706 178.794 173.053 179.392 176.998L183.337 175.683C183.337 175.683 190.629 178.193 196.009 182.617C196.009 182.617 198.997 177.118 201.867 175.325L205.931 175.803C205.931 175.803 199.595 164.207 185.847 167.435Z" fill="#263238"/>
<path opacity="0.1" d="M185.847 167.435C180.432 168.706 178.794 173.053 179.392 176.998L183.337 175.683C183.337 175.683 190.629 178.193 196.009 182.617C196.009 182.617 198.997 177.118 201.867 175.325L205.931 175.803C205.931 175.803 199.595 164.207 185.847 167.435Z" fill="white"/>
<path d="M195.68 169.16C195.417 169.015 195.103 168.889 194.77 168.77C194.08 168.225 193.243 166.914 193.283 163.725C193.297 162.687 193.396 161.457 193.629 159.992L184.762 158.336C184.762 158.336 187.785 164.303 185.263 168.735C184.395 169.121 183.878 169.666 183.972 170.388C184.635 175.513 195.65 180.465 195.65 180.465C195.65 180.465 201.029 172.097 195.68 169.16Z" fill="#EEC1BB"/>
<path opacity="0.2" d="M193.63 159.992C193.397 161.457 193.298 162.687 193.284 163.725C187.294 163.725 184.763 158.336 184.763 158.336L193.63 159.992Z" fill="black"/>
<path d="M189.672 130.735C189.672 130.735 200.072 129.42 201.985 137.788C203.898 146.156 197.442 150.818 197.442 150.818L189.672 130.735Z" fill="#263238"/>
<path d="M188.728 135.198C196.436 134.776 199.143 138.767 200.143 146.679C201.393 156.567 199.578 163.74 189.824 162.148C176.577 159.986 175.927 135.899 188.728 135.198Z" fill="#EEC1BB"/>
<path d="M195.137 146.521C195.137 146.521 196.315 148.476 197.555 149.595C197.555 149.595 196.953 150.679 195.571 150.578L195.137 146.521Z" fill="#D4827D"/>
<path d="M190.384 146.149C190.433 146.781 190.132 147.321 189.71 147.354C189.288 147.387 188.907 146.901 188.857 146.269C188.807 145.637 189.109 145.097 189.531 145.064C189.953 145.031 190.335 145.517 190.384 146.149Z" fill="#263238"/>
<path d="M189.358 145.108L190.691 144.461C190.691 144.461 190.097 145.672 189.358 145.108Z" fill="#263238"/>
<path d="M198.235 145.402C198.284 146.035 197.983 146.574 197.561 146.607C197.139 146.64 196.758 146.154 196.708 145.522C196.659 144.89 196.96 144.35 197.382 144.317C197.804 144.284 198.186 144.77 198.235 145.402Z" fill="#263238"/>
<path d="M197.209 144.361L198.542 143.714C198.542 143.714 197.948 144.925 197.209 144.361Z" fill="#263238"/>
<path d="M190.015 140.83C190.015 140.83 187.834 140.667 186.736 142.178" stroke="#263238" stroke-width="0.6862" stroke-miterlimit="10" stroke-linecap="round" stroke-linejoin="round"/>
<path d="M195.6 140.198C195.6 140.198 196.934 139.619 198.707 140.663" stroke="#263238" stroke-width="0.6862" stroke-miterlimit="10" stroke-linecap="round" stroke-linejoin="round"/>
<path d="M181.016 148.651C181.016 148.651 184.273 142.12 183.459 137.261C183.459 137.261 198.392 130.184 199.995 145.647C199.995 145.647 200.733 131.798 187.466 132.217C174.22 132.635 175.317 152.018 182.476 157.419C182.476 157.419 179.003 152.734 181.016 148.651Z" fill="#263238"/>
<path d="M190.987 130.137C190.987 130.137 197.323 128.583 199.116 130.257C200.909 131.931 188.118 143.765 181.424 144.961C181.424 144.961 179.153 152.373 180.946 155.839C180.946 155.839 173.415 153.209 173.056 141.733C172.697 130.257 184.771 125.953 190.987 130.137Z" fill="#263238"/>
<path d="M182.364 150.209C182.244 148.971 180.849 146.94 178.555 147.319C176.181 147.71 175.311 152.677 181.317 153.53C182.178 153.652 182.613 152.792 182.364 150.209Z" fill="#EEC1BB"/>
<path d="M179.033 134.68C179.033 134.68 176.403 127.986 169.35 128.464C162.297 128.942 161.221 139.94 164.927 148.069C168.633 156.198 166.122 158.828 166.122 158.828C166.122 158.828 170.067 158.35 170.067 151.058C170.067 151.058 170.426 153.449 170.306 155.72C170.306 155.72 172.936 152.014 170.426 144.961C167.916 137.908 175.925 141.136 175.925 141.136L179.033 134.68Z" fill="#263238"/>
<path d="M198.519 130.855C198.519 130.855 195.172 141.614 186.206 144.841" stroke="#263238" stroke-width="0.6862" stroke-miterlimit="10" stroke-linecap="round" stroke-linejoin="round"/>
<path d="M189.553 153.329C189.553 153.329 191.346 155.242 193.976 155.122" stroke="#263238" stroke-width="0.6862" stroke-miterlimit="10" stroke-linecap="round" stroke-linejoin="round"/>
<path d="M194.335 147.232C194.335 148.255 193.572 149.085 192.632 149.085C191.691 149.085 190.929 148.255 190.929 147.232C190.929 146.209 191.692 145.379 192.632 145.379C193.572 145.379 194.335 146.209 194.335 147.232Z" stroke="#263238" stroke-width="0.5" stroke-miterlimit="10" stroke-linecap="round" stroke-linejoin="round"/>
<path d="M200.372 146.933C200.372 147.956 199.609 148.786 198.668 148.786C197.727 148.786 196.965 147.956 196.965 146.933C196.965 145.91 197.728 145.08 198.668 145.08C199.609 145.08 200.372 145.91 200.372 146.933Z" stroke="#263238" stroke-width="0.5" stroke-miterlimit="10" stroke-linecap="round" stroke-linejoin="round"/>
<path d="M194.335 147.232C194.335 147.232 195.232 145.319 196.965 146.933" stroke="#263238" stroke-width="0.5" stroke-miterlimit="10" stroke-linecap="round" stroke-linejoin="round"/>
<path d="M190.928 147.232C190.928 147.232 181.364 146.933 180.229 146.993" stroke="#263238" stroke-width="0.5" stroke-miterlimit="10" stroke-linecap="round" stroke-linejoin="round"/>
<path d="M162.817 189.842C166.461 180.284 170.191 172.287 170.191 172.287C170.191 172.287 176.285 181.147 176.828 189.842H162.817Z" fill="#407BFF"/>
<path opacity="0.5" d="M162.817 189.842C166.461 180.284 170.191 172.287 170.191 172.287C170.191 172.287 176.285 181.147 176.828 189.842H162.817Z" fill="white"/>
<path d="M160.543 264.437C162.583 258.96 164.527 254.318 164.527 254.318L172.891 261.638C172.891 261.638 172.306 262.752 171.431 264.436H160.543V264.437Z" fill="#E4897B"/>
<path d="M219.567 264.437C217.582 262.022 216.162 260.242 216.162 260.242L224.325 253.462C224.325 253.462 228.292 259.629 231.593 264.437H219.567Z" fill="#E4897B"/>
<path d="M217.568 264.437L212.716 261.036L214.603 238.459C220.783 239.507 229.763 257.473 229.763 257.473L222.749 264.437H217.568Z" fill="#407BFF"/>
<path opacity="0.2" d="M222.749 264.437H217.568L214.088 261.998L212.717 261.038L214.601 238.455C220.783 239.509 229.762 257.476 229.762 257.476L223.58 263.611L222.749 264.437Z" fill="white"/>
<path d="M221.234 264.437L229.764 255.487L231.234 257.951L224.399 264.437H221.234Z" fill="#407BFF"/>
<path opacity="0.2" d="M217.568 264.437L214.088 261.998L215.739 252.208C215.739 252.208 222.2 256.292 223.58 263.611L222.749 264.437H217.568Z" fill="black"/>
<path d="M172.36 264.437C170.303 251.721 168.289 242.036 168.289 242.036C188.084 237.263 214.654 238.459 214.654 238.459C216.73 245.883 217.957 255.133 218.655 264.437H172.36Z" fill="#407BFF"/>
<path opacity="0.2" d="M172.363 264.437C172.22 263.55 172.077 262.667 171.936 261.813C170.034 250.413 168.292 242.036 168.292 242.036C188.084 237.264 214.653 238.459 214.653 238.459C216.728 245.883 217.955 255.133 218.653 264.437H172.363Z" fill="white"/>
<path opacity="0.2" d="M172.363 264.437C172.22 263.55 172.077 262.667 171.936 261.813L174.859 259.068C174.859 259.068 175.85 261.222 176.196 264.437H172.363Z" fill="black"/>
<path d="M203.384 264.437H200.24C199.732 258.06 198.964 251.641 197.807 247.407L192.263 242.868L196.626 241.456L200.586 241.679L199.518 246.93C199.518 246.93 201.456 255.012 203.384 264.437Z" fill="#263238"/>
<path d="M183.99 239.358C187.653 242.686 196.626 241.455 196.626 241.455C196.626 241.455 202.227 239.922 201.051 238.172C197.752 237.627 196.154 236.087 195.495 234.117C195.113 232.969 195.055 231.678 195.16 230.349C195.208 229.651 195.313 228.943 195.437 228.245L184.344 220.03C185.798 225.453 187.577 235.428 183.99 239.358Z" fill="#E4897B"/>
<path opacity="0.2" d="M186.907 225.252C187.347 231.908 192.817 233.744 195.495 234.117C195.113 232.969 195.055 231.678 195.16 230.349L186.907 225.252Z" fill="black"/>
<path d="M185.626 235.134L196.23 239.916L196.852 236.083L200.75 237.454C202.149 237.946 203.028 239.334 202.874 240.81L202.434 245.017L197.054 242.073L194.374 245.865L181.637 239.73L185.626 235.134Z" fill="#407BFF"/>
<path opacity="0.3" d="M185.626 235.134L196.23 239.916L196.852 236.083L200.75 237.454C202.149 237.946 203.028 239.334 202.874 240.81L202.434 245.017L197.054 242.073L194.374 245.865L181.637 239.73L185.626 235.134Z" fill="white"/>
<path d="M207.087 204.622C207.087 204.622 208.744 215.303 203.085 219.43C197.426 223.557 197.365 203.665 197.365 203.665L207.087 204.622Z" fill="#263238"/>
<path d="M186.644 227.973C189.408 231.92 193.899 232.942 197.792 231.697C200.295 230.9 202.549 229.157 203.942 226.658C204.129 226.332 204.295 225.986 204.452 225.631C207.224 219.093 208.077 207.667 201.159 203.407C196.247 200.334 189.761 201.824 186.689 206.745C185.805 208.138 185.278 209.728 185.125 211.376C184.299 219.014 183.454 223.465 186.644 227.973Z" fill="#E4897B"/>
<path d="M196.266 215.422C196.121 216.026 196.401 216.591 196.811 216.658C197.221 216.726 197.624 216.275 197.73 215.662C197.837 215.049 197.585 214.491 197.185 214.425C196.785 214.36 196.375 214.799 196.266 215.422Z" fill="#263238"/>
<path d="M203.239 216.591C203.094 217.195 203.384 217.762 203.784 217.828C204.184 217.894 204.596 217.445 204.703 216.832C204.81 216.219 204.558 215.661 204.158 215.595C203.758 215.529 203.339 216.006 203.239 216.591Z" fill="#263238"/>
<path d="M200.972 216.523C201.39 218.533 202.084 220.475 203.034 222.294C202.073 222.763 200.954 222.784 199.977 222.351L200.972 216.523Z" fill="#DE5753"/>
<path d="M206.323 214.046C206.194 214.092 206.05 214.065 205.945 213.976C205.26 213.341 204.316 213.067 203.398 213.236C203.204 213.29 203.003 213.177 202.949 212.982C202.895 212.788 203.009 212.587 203.203 212.532H203.205C204.36 212.289 205.562 212.621 206.428 213.424C206.583 213.553 206.604 213.783 206.475 213.938C206.473 213.94 206.471 213.943 206.469 213.945C206.426 213.985 206.377 214.02 206.323 214.046Z" fill="#263238"/>
<path d="M195.354 212.402C195.281 212.388 195.215 212.351 195.164 212.297C195.058 212.126 195.11 211.901 195.281 211.794C195.283 211.792 195.286 211.791 195.288 211.79C196.29 211.157 197.537 211.052 198.63 211.507C198.811 211.595 198.887 211.814 198.798 211.995V211.996C198.706 212.174 198.491 212.247 198.309 212.164C197.435 211.83 196.455 211.928 195.665 212.43C195.563 212.467 195.449 212.457 195.354 212.402Z" fill="#263238"/>
<path d="M192.266 202.858L192.276 206.269C191.104 206.725 190.29 207.89 190.641 209.275C191.39 212.232 189.264 216.427 186.886 217.917C186.886 217.917 186.964 216.684 185.896 216.851C184.828 217.019 184.354 223.432 186.008 226.715C186.008 226.715 183.286 223.6 182.361 216.698C181.505 210.315 181.922 205.129 183.48 202.885L192.266 202.858Z" fill="#263238"/>
<path d="M180.774 217.033C181.327 218.888 182.593 220.448 184.294 221.37C186.555 222.576 188.237 220.684 188.077 218.259C187.914 216.106 186.565 212.817 184.063 212.635C181.561 212.454 180.124 214.747 180.774 217.033Z" fill="#E4897B"/>
<path d="M199.176 224.224C198.547 225.083 197.755 226.772 197.755 226.772C197.589 226.728 197.423 226.684 197.26 226.631C195.024 225.975 194.204 224.932 193.972 223.975C193.847 223.451 193.905 222.948 194.005 222.553C194.115 222.095 194.298 221.794 194.298 221.794C195.275 222.85 197.312 223.622 198.418 223.989C198.879 224.147 199.176 224.224 199.176 224.224Z" fill="#263238"/>
<path d="M198.418 223.989L197.979 224.73C195.875 224.107 194.477 223.386 194.005 222.554C194.115 222.096 194.298 221.795 194.298 221.795C195.275 222.85 197.312 223.622 198.418 223.989Z" fill="white"/>
<path d="M197.26 226.632C195.024 225.976 194.204 224.933 193.972 223.976C194.725 224.229 195.605 224.618 196.31 225.196C196.851 225.636 197.121 226.15 197.26 226.632Z" fill="#DE5753"/>
<path d="M187.71 215.306L188.71 214.724C188.71 214.724 188.082 218.811 189.378 219.959C189.378 219.959 193.882 220.438 195.452 220.862C197.022 221.287 197.964 223.092 197.964 223.092C197.964 223.092 201.487 222.337 203.021 224.986C203.021 224.986 204.967 223.361 205.956 220.894C205.956 220.894 205.841 228.368 201.651 232.35C197.461 236.333 190.616 234.355 187.445 231.24C184.275 228.125 187.71 215.306 187.71 215.306ZM190.674 227.1C192.055 228.963 194.42 228.581 195.442 226.804L196.843 227.57C196.843 227.57 195.303 228.871 196.472 230.065C197.642 231.259 201.263 230.836 201.627 227.389C202.002 223.84 197.64 223.551 197.64 223.551C197.64 223.551 196.186 221.863 193.472 221.842C190.758 221.821 189.294 225.238 190.674 227.1Z" fill="#263238"/>
<path d="M192.276 206.269C192.276 206.269 209.273 212.069 207.312 200.611C207.312 200.611 198.144 195.206 190.146 196.719C182.148 198.232 182.778 206.517 182.778 206.517L192.276 206.269Z" fill="#263238"/>
<path d="M158.351 264.437C159.375 261.175 164.965 243.784 168.292 242.036C168.292 242.036 170.673 243.966 172.942 248.587C175.211 253.208 175.7 262.473 175.7 262.473L174.231 264.437H158.351Z" fill="#407BFF"/>
<path opacity="0.2" d="M158.351 264.437C159.375 261.175 164.965 243.784 168.292 242.036C168.292 242.036 170.673 243.966 172.942 248.587C175.211 253.208 175.7 262.473 175.7 262.473L174.231 264.437H158.351Z" fill="white"/>
<path opacity="0.6" d="M68.122 191.453H151.414V264.438H68.122V191.453Z" fill="white"/>
<path d="M130.507 264.437C127.357 261.384 125.164 258.961 125.164 258.961L126.316 241.238C130.044 243.215 142.074 259.624 146.541 264.437H130.507Z" fill="#263238"/>
<path opacity="0.3" d="M130.507 264.437C127.357 261.384 125.164 258.961 125.164 258.961L126.316 241.238C130.044 243.215 142.074 259.624 146.541 264.437H130.507Z" fill="white"/>
<path opacity="0.2" d="M130.513 264.437C127.363 261.385 125.164 258.964 125.164 258.964L125.432 254.756L126.761 250.673C126.761 250.673 132.392 255.891 131.33 264.437H130.513Z" fill="black"/>
<path d="M92.797 218.216C93.66 221.523 88.942 230.642 90.855 247.232C92.768 263.822 110.962 262.81 119.139 257.279C127.316 251.748 125.901 221.735 123.089 215.817C120.277 209.899 92.797 218.216 92.797 218.216Z" fill="#263238"/>
<path d="M94.095 264.437C93.489 262.165 92.771 259.683 91.912 256.923C91.296 254.949 90.617 252.83 89.856 250.547C89.285 248.817 88.669 246.979 87.99 245.041C92.056 243.746 96.195 242.741 100.397 242.043C104.826 241.255 109.318 240.784 113.818 240.63C119.632 240.585 126.316 241.237 126.316 241.237C126.316 241.237 127.267 241.463 127.864 247.631C128.182 251.011 128.495 256.371 128.463 264.436H94.095V264.437Z" fill="#263238"/>
<path opacity="0.3" d="M94.095 264.437C93.489 262.165 92.771 259.683 91.912 256.923C91.296 254.949 90.617 252.83 89.856 250.547C89.285 248.817 88.669 246.979 87.99 245.041C92.056 243.746 96.195 242.741 100.397 242.043C104.826 241.255 109.318 240.784 113.818 240.63C119.632 240.585 126.316 241.237 126.316 241.237C126.316 241.237 127.267 241.463 127.864 247.631C128.182 251.011 128.495 256.371 128.463 264.436H94.095V264.437Z" fill="white"/>
<path d="M108.449 239.771C104.865 239.985 99.125 239.95 95.408 245.688H102.211L98.505 250.213C98.505 250.213 110.417 253.051 114.144 260.862C114.144 260.862 119.478 251.604 122.38 249.452C122.38 249.452 119.591 246.596 116.34 245.042C116.34 245.042 119.119 243.787 122.38 243.257C122.38 243.257 113.299 239.481 108.449 239.771Z" fill="white"/>
<path d="M101.771 243.143C101.771 243.143 110.994 253.543 113.835 258.563C113.835 258.563 116.08 250.369 113.449 241.914L101.771 243.143Z" fill="#407BFF"/>
<path opacity="0.6" d="M101.771 243.143C101.771 243.143 110.994 253.543 113.835 258.563C113.835 258.563 116.08 250.369 113.449 241.914L101.771 243.143Z" fill="white"/>
<path d="M111.352 247.232C103.985 246.289 101.771 243.142 101.771 243.142C106.445 238.732 102.562 231.09 102.562 231.09L111.429 232.746C111.196 234.211 111.097 235.441 111.083 236.479C111.016 241.861 113.45 241.914 113.45 241.914C115.005 244.829 111.352 247.232 111.352 247.232Z" fill="#EEC1BB"/>
<path opacity="0.2" d="M111.429 232.746C111.196 234.211 111.097 235.441 111.083 236.479C105.093 236.479 102.562 231.09 102.562 231.09L111.429 232.746Z" fill="black"/>
<path d="M106.527 207.952C114.235 207.53 116.942 211.521 117.942 219.433C119.191 229.321 117.377 236.494 107.623 234.902C94.376 232.74 93.726 208.653 106.527 207.952Z" fill="#EEC1BB"/>
<path d="M112.936 219.275C112.936 219.275 114.114 221.23 115.354 222.349C115.354 222.349 114.752 223.433 113.37 223.332L112.936 219.275Z" fill="#D4827D"/>
<path d="M108.183 218.903C108.232 219.535 107.931 220.075 107.509 220.108C107.088 220.141 106.706 219.655 106.656 219.023C106.606 218.391 106.908 217.851 107.33 217.818C107.752 217.785 108.134 218.271 108.183 218.903Z" fill="#263238"/>
<path d="M107.157 217.862L108.49 217.215C108.49 217.215 107.896 218.426 107.157 217.862Z" fill="#263238"/>
<path d="M116.034 218.156C116.083 218.789 115.782 219.328 115.36 219.361C114.938 219.394 114.557 218.908 114.507 218.276C114.458 217.644 114.759 217.104 115.181 217.071C115.603 217.038 115.985 217.524 116.034 218.156Z" fill="#263238"/>
<path d="M115.008 217.115L116.341 216.468C116.341 216.468 115.747 217.679 115.008 217.115Z" fill="#263238"/>
<path d="M107.814 213.585C107.814 213.585 105.633 213.422 104.535 214.933" stroke="#263238" stroke-width="0.6862" stroke-miterlimit="10" stroke-linecap="round" stroke-linejoin="round"/>
<path d="M113.399 212.952C113.399 212.952 114.733 212.373 116.506 213.417" stroke="#263238" stroke-width="0.6862" stroke-miterlimit="10" stroke-linecap="round" stroke-linejoin="round"/>
<path d="M112.412 226.426C112.017 227.38 111.659 229.152 111.659 229.152C111.492 229.149 111.326 229.145 111.16 229.133C108.904 229.029 107.892 228.236 107.454 227.388C107.216 226.923 107.155 226.436 107.158 226.042C107.156 225.586 107.259 225.26 107.259 225.26C108.422 226.03 110.518 226.288 111.643 226.38C112.114 226.422 112.412 226.426 112.412 226.426Z" fill="#263238"/>
<path d="M111.643 226.379L111.4 227.177C109.275 227.074 107.793 226.716 107.158 226.042C107.156 225.586 107.259 225.26 107.259 225.26C108.422 226.029 110.518 226.288 111.643 226.379Z" fill="white"/>
<path d="M111.16 229.133C108.904 229.029 107.892 228.236 107.454 227.388C108.221 227.453 109.139 227.617 109.936 228C110.547 228.29 110.919 228.712 111.16 229.133Z" fill="#DE5753"/>
<path d="M98.815 221.405C98.815 221.405 102.072 214.875 101.258 210.015C101.258 210.015 116.191 202.938 117.794 218.401C117.794 218.401 118.532 204.552 105.265 204.971C92.019 205.389 93.116 224.772 100.275 230.173C100.275 230.173 96.802 225.488 98.815 221.405Z" fill="#263238"/>
<path d="M100.163 222.963C100.043 221.725 98.648 219.694 96.354 220.073C93.98 220.464 93.11 225.431 99.116 226.284C99.977 226.406 100.412 225.546 100.163 222.963Z" fill="#EEC1BB"/>
<path d="M103.312 209.245C103.312 209.245 104.535 218.755 98.817 227.388C94.48 233.935 99.463 239.675 99.463 239.675C99.463 239.675 89.174 236.125 93.661 221.523C93.661 221.523 88.824 208.475 98.337 204.962C98.337 204.962 98.391 200.984 106.996 201.741C115.601 202.498 122.534 209.873 123.849 219.276C125.164 228.678 120.263 239.162 120.263 239.162C120.263 239.162 125.474 205.844 103.312 209.245Z" fill="#263238"/>
<path d="M102.835 209.396C103.442 211.54 103.563 213.932 103.47 216.236C103.343 218.559 102.963 220.874 102.357 223.134C101.761 225.396 100.893 227.587 99.773 229.646C98.627 231.681 97.24 233.633 95.408 235.123C97.294 233.698 98.76 231.784 99.99 229.771C101.194 227.733 102.152 225.545 102.838 223.273C103.533 221.005 104.005 218.663 104.219 216.286C104.39 213.899 104.381 211.516 103.788 209.094L102.835 209.396Z" fill="#263238"/>
<path opacity="0.2" d="M94.088 264.437C93.959 263.959 93.83 263.48 93.69 262.981C94.618 259.72 95.576 262.269 95.576 262.269C95.576 262.269 95.767 263.063 95.917 264.438L94.088 264.437Z" fill="black"/>
<path d="M81.081 264.437C84.565 255.157 87.99 245.041 87.99 245.041C95.127 247.857 95.517 262.467 95.517 262.467C95.517 262.467 95.1 263.211 94.405 264.436H81.081V264.437Z" fill="#263238"/>
<path opacity="0.3" d="M81.081 264.437C84.565 255.157 87.99 245.041 87.99 245.041C95.127 247.857 95.517 262.467 95.517 262.467C95.517 262.467 95.1 263.211 94.405 264.436H81.081V264.437Z" fill="white"/>
<path opacity="0.5" d="M238.531 191.453H321.823V264.438H238.531V191.453Z" fill="white"/>
<path d="M279.03 203.32L287.39 211.69H289.12V203.32H279.03Z" fill="white"/>
<path d="M277.28 205.82V211.69H283.15L277.28 205.82Z" fill="white"/>
<path d="M273.062 210.88L276.227 209.88V205.265L273.062 204.265V210.88Z" fill="white"/>
<path d="M281.091 218.862C274.819 218.862 269.734 213.777 269.734 207.505C269.734 201.233 274.819 196.148 281.091 196.148C287.363 196.148 292.448 201.233 292.448 207.505C292.448 213.777 287.363 218.862 281.091 218.862Z" stroke="white" stroke-miterlimit="10"/>
<path d="M273.061 199.475L289.122 215.536" stroke="white" stroke-miterlimit="10"/>
<path d="M416.253 397.804L391.468 395.368V360.536H381.645V395.358L356.76 397.804C354.29 398.047 352.406 400.124 352.406 402.606V406.328H385.595H387.416H420.606V402.606C420.606 400.124 418.723 398.047 416.253 397.804Z" fill="#263238"/>
<path opacity="0.3" d="M416.253 397.804L391.468 395.368V360.536H381.645V395.358L356.76 397.804C354.29 398.047 352.406 400.124 352.406 402.606V406.328H385.595H387.416H420.606V402.606C420.606 400.124 418.723 398.047 416.253 397.804Z" fill="white"/>
<path d="M361.452 410.944C361.452 414.491 358.577 417.366 355.03 417.366C351.483 417.366 348.608 414.491 348.608 410.944C348.608 407.397 351.483 404.522 355.03 404.522C358.577 404.522 361.452 407.397 361.452 410.944Z" fill="#407BFF"/>
<path d="M411.561 410.944C411.561 414.491 414.436 417.366 417.983 417.366C421.53 417.366 424.405 414.491 424.405 410.944C424.405 407.397 421.53 404.522 417.983 404.522C414.436 404.522 411.561 407.397 411.561 410.944Z" fill="#407BFF"/>
<path d="M389.026 368.023H384.087C381.804 368.023 379.954 366.173 379.954 363.89V336.999H393.16V363.89C393.159 366.173 391.309 368.023 389.026 368.023Z" fill="#263238"/>
<path opacity="0.5" d="M389.026 368.023H384.087C381.804 368.023 379.954 366.173 379.954 363.89V336.999H393.16V363.89C393.159 366.173 391.309 368.023 389.026 368.023Z" fill="white"/>
<path d="M410.04 282.554C410.04 282.554 411.912 329.002 398.98 336.999H413.744C413.744 336.999 425.183 321.175 421.95 282.554H410.04Z" fill="#263238"/>
<path opacity="0.5" d="M410.04 282.554C410.04 282.554 411.912 329.002 398.98 336.999H413.744C413.744 336.999 425.183 321.175 421.95 282.554H410.04Z" fill="white"/>
<path d="M357.605 330.504H413.772C416.533 330.504 418.772 332.743 418.772 335.504V340.559H352.605V335.504C352.605 332.742 354.844 330.504 357.605 330.504Z" fill="#407BFF"/>
<path d="M351.858 335.531H419.519C420.63 335.531 421.53 336.432 421.53 337.542V338.547C421.53 339.658 420.629 340.558 419.519 340.558H351.858C350.747 340.558 349.847 339.658 349.847 338.547V337.542C349.847 336.432 350.748 335.531 351.858 335.531Z" fill="#407BFF"/>
<path opacity="0.6" d="M351.858 335.531H419.519C420.63 335.531 421.53 336.432 421.53 337.542V338.547C421.53 339.658 420.629 340.558 419.519 340.558H351.858C350.747 340.558 349.847 339.658 349.847 338.547V337.542C349.847 336.432 350.748 335.531 351.858 335.531Z" fill="white"/>
<path d="M423.531 291.992H403.958C395.904 291.992 389.374 285.463 389.374 277.408V272.237C389.374 264.182 395.904 257.653 403.958 257.653H423.531C431.585 257.653 438.115 264.182 438.115 272.237V277.408C438.114 285.462 431.585 291.992 423.531 291.992Z" fill="#407BFF"/>
<path d="M361.363 250.521C358.715 251.609 343.685 270.783 343.286 274.822C342.803 279.716 347.769 280.651 353.176 279.383C358.583 278.115 354.495 272.804 354.495 272.804L362.821 261.144L361.363 250.521Z" fill="#263238"/>
<path d="M363.758 298.258H382.747C382.747 298.258 379.088 273.164 378.494 272.805C377.901 272.445 364.605 271.555 364.605 271.555V285.544L363.758 298.258Z" fill="#263238"/>
<path d="M385.418 243.711C384.726 243.565 377.482 240.574 373.538 243.602C369.594 246.631 365.161 256.719 372.224 260.378C379.287 264.037 388.293 262.127 389.374 256.62C390.455 251.113 385.418 243.711 385.418 243.711Z" fill="#263238"/>
<path d="M391.069 221.084C391.069 221.084 395.83 232.059 392.496 236.164C389.162 240.269 367.452 243.482 363.675 239.651C359.898 235.819 364.845 220.651 364.845 220.651L391.069 221.084Z" fill="#263238"/>
<path d="M305.691 382.377L311.347 383.739L314.21 375.93L316.809 368.828L310.367 366.079L307.89 374.699L305.691 382.377Z" fill="#E4897B"/>
<path opacity="0.2" d="M307.89 374.699L314.21 375.93L316.809 368.828L310.367 366.079L307.89 374.699Z" fill="black"/>
<path d="M308.458 370.577L316.303 373.493C316.303 373.493 337.232 321.167 341.533 320.986C345.834 320.805 389.627 340.934 400.603 329.769C411.579 318.612 395.708 291.714 395.708 291.714C395.708 291.714 369.308 287.946 367.321 293.907C366.934 295.06 366.512 297.322 366.203 299.257C365.902 301.081 365.695 302.612 365.695 302.612C365.695 302.612 365.686 302.612 365.678 302.603C364.861 302.397 338.358 295.558 327.915 302.612C317.309 309.786 308.458 370.577 308.458 370.577Z" fill="#263238"/>
<path opacity="0.2" d="M308.458 370.577L316.303 373.493C316.303 373.493 337.232 321.167 341.533 320.986C345.834 320.805 389.627 340.934 400.603 329.769C411.579 318.612 395.708 291.714 395.708 291.714C395.708 291.714 369.308 287.946 367.321 293.907C366.934 295.06 366.512 297.322 366.203 299.257C365.902 301.081 365.695 302.612 365.695 302.612C365.695 302.612 365.686 302.612 365.678 302.603C364.861 302.397 338.358 295.558 327.915 302.612C317.309 309.786 308.458 370.577 308.458 370.577Z" fill="white"/>
<path d="M353.581 404.697L359.217 403.254L358.133 395.168L357.126 387.752L350.156 388.377L351.966 397.018L353.581 404.697Z" fill="#E4897B"/>
<path opacity="0.2" d="M352.011 397.192L358.173 395.323L357.146 387.829L350.166 388.416L352.011 397.192Z" fill="black"/>
<path d="M319.543 370.591L308.117 366.707L307.628 371.388L316.295 374.452L319.543 370.591Z" fill="#263238"/>
<path d="M381.644 332.453C381.644 332.453 379.856 332.495 352.166 331.205C352.166 331.205 356.304 365.824 358.562 391.739L350.282 393.15C350.282 393.15 330.497 337.655 330.712 328.839C330.927 320.022 341.034 317.441 341.034 317.441C341.034 317.441 360.762 328.84 381.644 332.453Z" fill="#263238"/>
<path opacity="0.1" d="M381.644 332.453C381.644 332.453 379.856 332.495 352.166 331.205C352.166 331.205 356.304 365.824 358.562 391.739L350.282 393.15C350.282 393.15 330.497 337.655 330.712 328.839C330.927 320.022 341.034 317.441 341.034 317.441C341.034 317.441 360.762 328.84 381.644 332.453Z" fill="white"/>
<path d="M359.772 389.229L348.392 390.523L350.587 394.984L359.8 393.803L359.772 389.229Z" fill="#263238"/>
<path opacity="0.3" d="M365.696 302.612L381.137 305.829C381.137 305.829 372.604 301.115 366.204 299.257C365.902 301.081 365.696 302.612 365.696 302.612Z" fill="black"/>
<path d="M395.07 287.61L395.706 291.717L367.32 293.906L366.569 289.049L395.07 287.61Z" fill="#263238"/>
<path opacity="0.2" d="M395.07 287.61L395.706 291.717L367.32 293.906L366.569 289.049L395.07 287.61Z" fill="black"/>
<path d="M385.385 287.355L386.787 287.21L387.522 294.354L386.119 294.498L385.385 287.355Z" fill="#263238"/>
<path d="M373.203 289.03L379.422 288.631L379.725 293.347L373.506 293.746L373.203 289.03Z" fill="white"/>
<path d="M367.951 288.122L369.353 287.978L370.088 295.122L368.685 295.266L367.951 288.122Z" fill="#263238"/>
<path opacity="0.2" d="M385.385 287.355L386.787 287.21L387.522 294.354L386.119 294.498L385.385 287.355Z" fill="white"/>
<path opacity="0.2" d="M367.951 288.122L369.353 287.978L370.088 295.122L368.685 295.266L367.951 288.122Z" fill="white"/>
<path d="M363.22 249.9C363.22 249.9 369.875 245.246 378.982 244.778C388.089 244.31 396.276 249.326 396.276 249.326L395.069 287.61L366.567 289.049C366.569 289.049 357.585 263.512 363.22 249.9Z" fill="#407BFF"/>
<path d="M364.612 224.323C364.612 224.323 360.499 205.828 377.608 207.658C399.084 209.956 390.925 236.607 380.28 234.993C369.635 233.38 364.612 224.323 364.612 224.323Z" fill="#263238"/>
<path opacity="0.2" d="M368.143 249.092L367.632 257.148L373.815 251.61C373.815 251.61 374.228 255.632 375.66 262.259C375.66 262.259 376.056 257.807 378.561 252.256L384.397 258.204L388.218 249.093C388.218 249.093 376.517 240.609 368.143 249.092Z" fill="black"/>
<path d="M375.927 255.631L379.01 248.049L384.679 245.512C379.651 242.051 382.186 234.314 382.186 234.314L374.103 237.156C374.535 238.498 374.806 239.637 374.97 240.61C375.815 245.652 373.538 246.055 373.538 246.055L375.101 248.313L375.927 255.631Z" fill="#E4897B"/>
<path opacity="0.2" d="M374.103 237.155C374.535 238.497 374.806 239.636 374.97 240.609C378.839 239.058 382.186 234.313 382.186 234.313L374.103 237.155Z" fill="black"/>
<path d="M373.819 212.998C366.513 213.626 364.498 217.739 364.609 225.313C364.748 234.779 367.409 241.284 376.371 238.49C388.543 234.695 385.952 211.955 373.819 212.998Z" fill="#E4897B"/>
<path d="M369.297 224.499C369.297 224.499 368.449 226.494 367.432 227.712C367.432 227.712 368.143 228.652 369.429 228.373L369.297 224.499Z" fill="#DE5753"/>
<path d="M373.718 223.518C373.756 224.119 374.111 224.586 374.512 224.562C374.913 224.537 375.207 224.029 375.17 223.428C375.132 222.827 374.777 222.36 374.376 222.385C373.975 222.409 373.68 222.916 373.718 223.518Z" fill="#263238"/>
<path d="M374.545 222.402L373.205 221.971C373.205 221.971 373.925 223.031 374.545 222.402Z" fill="#263238"/>
<path d="M366.234 223.859C366.272 224.46 366.627 224.928 367.028 224.903C367.429 224.878 367.724 224.37 367.686 223.769C367.648 223.168 367.293 222.7 366.892 222.725C366.492 222.75 366.197 223.258 366.234 223.859Z" fill="#263238"/>
<path d="M367.061 222.743L365.721 222.312C365.721 222.312 366.441 223.372 367.061 222.743Z" fill="#263238"/>
<path d="M373.358 218.466C373.358 218.466 375.388 218.023 376.621 219.298" stroke="#263238" stroke-width="0.7247" stroke-miterlimit="10" stroke-linecap="round" stroke-linejoin="round"/>
<path d="M368.021 218.614C368.021 218.614 366.69 218.247 365.161 219.465" stroke="#263238" stroke-width="0.7247" stroke-miterlimit="10" stroke-linecap="round" stroke-linejoin="round"/>
<path d="M382.862 224.625C382.862 224.625 378.931 218.916 379.05 214.238C379.05 214.238 364.065 209.567 364.612 224.323C364.612 224.323 362.076 211.396 374.61 210.027C387.124 208.659 388.669 227.035 382.653 233.067C382.653 233.067 385.297 228.197 382.862 224.625Z" fill="#263238"/>
<path d="M381.801 226.27C381.749 225.089 382.792 222.994 385 223.045C387.285 223.098 388.763 227.653 383.228 229.254C382.433 229.483 381.91 228.733 381.801 226.27Z" fill="#E4897B"/>
<path d="M369.019 231.351C369.544 232.179 370.168 233.779 370.168 233.779C370.323 233.749 370.479 233.718 370.632 233.68C372.726 233.215 373.544 232.307 373.815 231.442C373.962 230.968 373.939 230.503 373.872 230.134C373.799 229.707 373.65 229.419 373.65 229.419C372.687 230.329 370.769 230.913 369.731 231.182C369.297 231.299 369.019 231.351 369.019 231.351Z" fill="#263238"/>
<path d="M369.73 231.181L370.087 231.888C372.058 231.445 373.387 230.868 373.871 230.133C373.798 229.706 373.649 229.418 373.649 229.418C372.687 230.328 370.768 230.912 369.73 231.181Z" fill="white"/>
<path d="M370.632 233.68C372.726 233.215 373.544 232.307 373.815 231.442C373.108 231.628 372.275 231.931 371.592 232.42C371.068 232.791 370.788 233.247 370.632 233.68Z" fill="#DE5753"/>
<path d="M374.018 213.536C374.018 213.536 377.994 225.304 385.55 224.5C393.106 223.696 380.118 209.479 380.118 209.479C380.118 209.479 367.365 205.879 361.834 212.963C356.303 220.047 364.612 224.324 364.612 224.324C364.612 224.324 363.346 215.054 374.018 213.536Z" fill="#263238"/>
<path d="M374.018 212.676C374.018 212.676 373.83 220.961 380.066 223.327" stroke="#263238" stroke-width="0.5" stroke-miterlimit="10" stroke-linecap="round" stroke-linejoin="round"/>
<path d="M382.491 242.553L379.01 248.049L383.374 255.631L386.534 245.898L382.491 242.553Z" fill="#407BFF"/>
<path d="M375.1 243.603V248.313L369.949 254.002L371.631 245.832L375.1 243.603Z" fill="#407BFF"/>
<path d="M296.325 393.363C297.185 392.967 298.11 392.732 299.055 392.669C299.055 392.669 302.322 390.746 305.56 383.276L309.201 383.255C310.462 383.269 311.579 384.07 311.998 385.259C312.058 385.421 312.093 385.591 312.101 385.763C312.064 386.643 311.971 387.519 311.821 388.387C311.493 391.111 309.692 396.953 309.692 396.953L309.075 396.796L310.197 391.363C310.57 389.517 308.63 391.3 307.731 393.162C306.832 395.023 305.451 396.897 301.43 395.978C296.745 394.881 294.856 394.206 296.325 393.363Z" fill="#263238"/>
<path d="M306.219 381.319C306.219 381.319 301.673 390.833 299.055 392.67C299.055 392.67 302.565 394.763 306.219 390.105C310.945 384.081 312.101 385.764 312.101 385.764C312.101 385.764 311.901 383.703 311.532 382.694C310.822 380.749 306.219 381.319 306.219 381.319Z" fill="#E4897B"/>
<path d="M346.407 416.032C347.149 415.444 347.992 414.996 348.895 414.711C348.895 414.711 351.613 412.068 352.987 404.043L356.519 403.159C357.747 402.874 359.022 403.387 359.712 404.442C359.808 404.585 359.883 404.742 359.932 404.907C360.105 405.77 360.222 406.644 360.282 407.523C360.61 410.247 360.246 416.35 360.246 416.35L359.609 416.344L359.41 410.8C359.334 408.918 357.873 411.11 357.441 413.132C357.009 415.154 356.112 417.301 351.987 417.362C347.174 417.407 345.18 417.199 346.407 416.032Z" fill="#263238"/>
<path d="M353.162 401.985C353.162 401.985 351.002 412.306 348.894 414.711C348.894 414.711 352.8 415.912 355.246 410.52C358.408 403.547 359.931 404.907 359.931 404.907C359.931 404.907 359.248 402.952 358.65 402.059C357.499 400.339 353.162 401.985 353.162 401.985Z" fill="#E4897B"/>
<path d="M387.451 245.451C387.451 245.451 378.579 271.8 391.076 301.719L403.22 300.137L395.706 283.103L397.352 248.859L387.451 245.451Z" fill="#263238"/>
<path d="M370.632 246.387C370.632 246.387 366.569 252.931 367.062 272.804L364.606 300.928L362.254 299.257L364.178 285.543C364.178 285.543 359.05 261.391 361.362 250.521L370.632 246.387Z" fill="#263238"/>
<path d="M373.538 243.603C373.538 243.603 366.647 247.225 363.126 252.17L365.698 254.544L362.254 259.588L367.061 272.805C367.061 272.805 369.668 247.992 373.538 243.603Z" fill="#263238"/>
<path opacity="0.2" d="M373.538 243.603C373.538 243.603 366.647 247.225 363.126 252.17L365.698 254.544L362.254 259.588L367.061 272.805C367.061 272.805 369.668 247.992 373.538 243.603Z" fill="white"/>
<path d="M385.418 243.711C385.418 243.711 382.259 261.763 384.679 274.224L392.242 257.093L387.912 252.93L393.682 248.806C393.682 248.806 390.264 245.143 385.418 243.711Z" fill="#263238"/>
<path opacity="0.2" d="M385.418 243.711C385.418 243.711 382.259 261.763 384.679 274.224L392.242 257.093L387.912 252.93L393.682 248.806C393.682 248.806 390.264 245.143 385.418 243.711Z" fill="white"/>
<path d="M376.47 275.434L366.238 276.146C366.238 276.146 364.805 275.192 363.559 274.893C362.314 274.595 355.036 273.796 353.724 274.314C352.412 274.833 351.218 279.128 351.338 280.023C351.457 280.918 362.454 281.21 362.802 281.243C363.15 281.276 364.397 280.108 364.397 280.108L376.471 279.989L376.47 275.434Z" fill="#E4897B"/>
<path d="M397.352 248.859C404.011 252.861 407.638 274.411 403.22 277.78C398.802 281.149 368.43 281.244 368.43 281.244L367.432 274.823C367.432 274.823 393.52 272.214 394.846 269.676C396.172 267.138 395.706 257.149 395.706 257.149L397.352 248.859Z" fill="#263238"/>
<path d="M279.558 417.366H274.289L264.82 285.544H271.812L279.558 417.366Z" fill="#263238"/>
<path opacity="0.7" d="M279.561 417.366H274.289L265.282 292.091L264.818 285.756H271.811L272.19 292.091L279.561 417.366Z" fill="white"/>
<path opacity="0.2" d="M272.19 291.777H265.282L264.818 285.756H271.811L272.19 291.777Z" fill="black"/>
<path d="M318.232 417.366H312.962L312.102 285.544H319.093L318.232 417.366Z" fill="#263238"/>
<path opacity="0.7" d="M319.096 285.756L318.959 307.024L318.236 417.366H312.963L312.241 307.024L312.103 285.756H319.096Z" fill="white"/>
<path opacity="0.2" d="M319.096 285.756L318.959 307.261H312.241L312.103 285.756H319.096Z" fill="black"/>
<path d="M374.18 417.366H368.911L359.442 285.544H366.434L374.18 417.366Z" fill="#263238"/>
<path opacity="0.7" d="M374.183 417.366H368.911L359.904 292.091L359.44 285.756H366.433L366.812 292.091L374.183 417.366Z" fill="white"/>
<path opacity="0.2" d="M366.812 291.777H359.904L359.44 285.756H366.433L366.812 291.777Z" fill="black"/>
<path d="M219.274 417.366H214.004L221.751 285.544H228.742L219.274 417.366Z" fill="#263238"/>
<path opacity="0.7" d="M228.741 285.756L228.277 292.091L219.27 417.366H214.006L221.369 292.091L221.748 285.756H228.741Z" fill="white"/>
<path opacity="0.2" d="M221.748 285.756H228.741L228.277 291.777H221.369L221.748 285.756Z" fill="black"/>
<path d="M369.813 288.845H218.371C217.177 288.845 216.209 287.877 216.209 286.683V282.243H371.975V286.683C371.975 287.877 371.007 288.845 369.813 288.845Z" fill="#407BFF"/>
<path opacity="0.6" d="M369.813 288.845H218.371C217.177 288.845 216.209 287.877 216.209 286.683V282.243H371.975V286.683C371.975 287.877 371.007 288.845 369.813 288.845Z" fill="white"/>
<path opacity="0.2" d="M371.975 285.544H216.21V282.243H371.975V285.544Z" fill="black"/>
<path d="M375.242 283.103H212.943C211.916 283.103 211.083 282.27 211.083 281.243C211.083 280.216 211.916 279.383 212.943 279.383H375.242C376.269 279.383 377.102 280.216 377.102 281.243C377.101 282.27 376.269 283.103 375.242 283.103Z" fill="#407BFF"/>
<path opacity="0.6" d="M375.242 283.103H212.943C211.916 283.103 211.083 282.27 211.083 281.243C211.083 280.216 211.916 279.383 212.943 279.383H375.242C376.269 279.383 377.102 280.216 377.102 281.243C377.101 282.27 376.269 283.103 375.242 283.103Z" fill="white"/>
<path d="M279.501 279.383L280.35 276.175H315.232L331.295 277.779L331.907 279.383H279.501Z" fill="#263238"/>
<path opacity="0.4" d="M315.232 276.175V279.383H279.501L280.35 276.175H315.232Z" fill="black"/>
<path d="M308.225 260.816C308.38 262.51 307.141 263.887 305.455 263.887H252.019C250.324 263.887 248.828 262.511 248.673 260.816L245.499 226.606C245.464 226.253 245.49 225.918 245.568 225.608C245.869 224.404 246.927 223.535 248.269 223.535H301.704C303.399 223.535 304.895 224.911 305.05 226.606L308.225 260.816Z" fill="#263238"/>
<path opacity="0.4" d="M305.266 263.887H252.02C250.325 263.887 248.829 262.511 248.674 260.816L245.5 226.606C245.465 226.253 245.491 225.918 245.569 225.608H298.815C300.501 225.608 301.998 226.984 302.161 228.679L305.335 262.889C305.369 263.242 305.343 263.578 305.266 263.887Z" fill="black"/>
<path d="M268.554 242.905H279.609L276.662 274.555L294.143 277.179V279.383H257.326V277.179L264.868 274.555L268.554 242.905Z" fill="#263238"/>
<path opacity="0.1" d="M279.609 242.905L271.419 278.881L264.868 278.686L268.554 242.905H279.609Z" fill="white"/>
<path d="M273.709 221.214H275.835V224.923H273.709V221.214Z" fill="#263238"/>
<path d="M275.835 221.065H278.406C278.406 221.065 278.777 220.447 278.777 219.384C278.777 218.271 278.406 217.703 278.406 217.703H275.835V221.065Z" fill="#263238"/>
<path d="M271.454 219.236C271.454 220.947 272.841 222.335 274.553 222.335C276.265 222.335 277.652 220.948 277.652 219.236C277.652 217.525 276.265 216.137 274.553 216.137C272.842 216.137 271.454 217.524 271.454 219.236Z" fill="#263238"/>
<path opacity="0.1" d="M271.454 219.236C271.454 220.947 272.841 222.335 274.553 222.335C276.265 222.335 277.652 220.948 277.652 219.236C277.652 217.525 276.265 216.137 274.553 216.137C272.842 216.137 271.454 217.524 271.454 219.236Z" fill="white"/>
<path d="M236.77 255.492V279.382H248.68C248.68 268.442 246.3 258.702 245.21 254.832C244.91 253.782 243.96 253.062 242.87 253.062H239.2C237.86 253.061 236.77 254.152 236.77 255.492Z" fill="#263238"/>
<path opacity="0.4" d="M236.77 255.491V279.381H242.73V256.37C242.73 254.542 241.248 253.061 239.421 253.061H239.2C237.858 253.061 236.77 254.149 236.77 255.491Z" fill="black"/>
<path d="M312.77 255.492V279.382H324.68C324.68 268.442 322.3 258.702 321.21 254.832C320.91 253.782 319.96 253.062 318.87 253.062H315.2C313.86 253.061 312.77 254.152 312.77 255.492Z" fill="#263238"/>
<path opacity="0.4" d="M312.77 255.491V279.381H318.73V256.37C318.73 254.542 317.248 253.061 315.421 253.061H315.2C313.858 253.061 312.77 254.149 312.77 255.491Z" fill="black"/>
</svg>
